<svg width="166" height="30" viewBox="0 0 166 30" fill="none" xmlns="http://www.w3.org/2000/svg">
<path fill-rule="evenodd" clip-rule="evenodd" d="M96.0176 22.683C96.2814 22.683 96.4984 22.4449 96.4984 22.1494V7.47486C96.4984 7.17936 96.2814 6.94119 96.0176 6.94119H93.3952C93.1297 6.94119 92.9162 7.17936 92.9162 7.47486V22.1494C92.9162 22.4457 93.1297 22.683 93.3952 22.683H96.0176ZM112.846 6.94119H110.328C110.064 6.94119 109.847 7.17936 109.847 7.47398V13.5789H104.549V7.47398C104.549 7.17936 104.336 6.94119 104.07 6.94119H101.553C101.285 6.94119 101.072 7.17936 101.072 7.47398V22.1494C101.072 22.444 101.285 22.683 101.553 22.683H104.07C104.336 22.683 104.549 22.444 104.549 22.1494V15.2664H109.847V22.1494C109.847 22.444 110.064 22.683 110.328 22.683H112.846C113.112 22.683 113.327 22.444 113.327 22.1494V7.4731C113.327 7.17848 113.111 6.94119 112.846 6.94119ZM68.2361 6.9456H61.9882C61.7227 6.9456 61.5084 7.18465 61.5084 7.47839V22.1511C61.5084 22.4457 61.7236 22.6848 61.9882 22.6848H68.1744C71.8262 22.6848 74.6842 20.4293 74.6842 14.7839C74.6833 9.22317 71.8606 6.9456 68.2361 6.9456ZM67.3328 20.9982L64.9838 20.9965L64.9882 8.62864L67.3328 8.62775C70.1661 8.62775 71.0703 10.5198 71.0703 14.7848C71.0703 19.0929 70.2235 20.9982 67.3328 20.9982ZM90.2099 22.1573L85.1141 7.47486C85.0215 7.18112 84.7312 6.94207 84.4649 6.94207L81.8839 6.94296C81.7418 6.94296 81.5848 7.06645 81.5319 7.22346L76.4219 22.3972C76.3681 22.5525 76.4405 22.6813 76.5816 22.6813H78.1411C78.2814 22.6813 78.4402 22.5525 78.4931 22.3972L79.7518 18.5363H85.2746L86.4584 22.1511C86.5528 22.4457 86.843 22.6839 87.1076 22.6839L89.8986 22.6892C90.1632 22.6901 90.3026 22.4502 90.2099 22.1573ZM80.2996 16.8515L82.5057 10.092L84.7224 16.8515H80.2996ZM129.433 22.1502L124.337 7.4731C124.246 7.17759 123.954 6.93943 123.688 6.93943L121.107 6.94031C120.966 6.94031 120.807 7.0638 120.754 7.22081L115.644 22.3981C115.59 22.5534 115.663 22.6821 115.805 22.6821H117.364C117.505 22.6821 117.664 22.5534 117.717 22.3981L118.975 18.5372H124.5L125.684 22.145C125.779 22.4396 126.069 22.6777 126.333 22.6777L129.123 22.683C129.387 22.683 129.527 22.4449 129.433 22.1502ZM119.524 16.8515L121.731 10.0885L123.948 16.8515H119.524ZM140.308 6.94296H128.544C128.403 6.94296 128.285 7.06998 128.285 7.22787V8.37195C128.285 8.52984 128.392 8.65686 128.537 8.65686H132.729V22.1494C132.729 22.444 132.942 22.683 133.208 22.683H135.747C136.013 22.683 136.226 22.444 136.226 22.1494V8.65686H140.311C140.349 8.65796 140.386 8.65134 140.421 8.6374C140.456 8.62347 140.488 8.60251 140.515 8.57581C140.541 8.54912 140.562 8.51726 140.576 8.4822C140.59 8.44714 140.596 8.40962 140.595 8.37195V7.22787C140.595 7.19017 140.588 7.15279 140.574 7.11794C140.559 7.08309 140.538 7.05147 140.511 7.02493C140.484 6.99839 140.453 6.97747 140.418 6.96339C140.383 6.94931 140.345 6.94237 140.308 6.94296ZM162.984 17.4954V7.22787C162.984 7.06998 163.098 6.94296 163.239 6.94296H164.772C164.914 6.94296 165.026 7.06998 165.026 7.22787V16.9944C165.026 17.8889 165.04 18.1782 165.004 18.726C164.807 21.8424 162.814 22.8453 159.595 22.8453C155.792 22.8453 154.008 20.6939 153.659 18.748C153.521 17.9903 153.507 17.2114 153.516 16.5569V7.47574C153.516 7.182 153.729 6.94296 153.995 6.94296H156.513C156.781 6.94296 156.994 7.18112 156.994 7.47574V17.7177C156.985 18.1261 156.985 18.5672 157.068 19.0303C157.225 19.8886 157.806 21.2858 160.035 21.2858C162.007 21.2858 162.984 20.1197 162.984 18.688V17.4954ZM149.751 9.37841C149.899 9.44898 149.988 9.32372 149.988 9.17112V7.8127C149.988 7.63364 149.905 7.56042 149.743 7.47927C149.743 7.47927 149.43 7.28962 148.646 7.07527C147.827 6.86883 146.987 6.76191 146.143 6.75683C143.818 6.75683 142.74 7.52602 142.081 8.42046C141.435 9.30079 141.181 10.3893 141.401 11.6022C141.767 13.6125 143.375 14.8553 145.014 16.0841C146.287 17.0403 147.516 17.7759 147.921 19.0056C148.089 19.5066 148.019 20.2802 147.592 20.678C147.131 21.1067 146.61 21.2726 145.747 21.2726C144.776 21.2726 143.557 21.0679 142.272 20.4716C142.044 20.3561 141.779 20.2238 141.779 20.2238C141.647 20.1673 141.531 20.244 141.535 20.3958L141.531 21.815C141.535 21.9685 141.643 22.0973 141.797 22.1644C141.797 22.1644 141.97 22.2367 142.14 22.2905C143.204 22.661 144.41 22.8471 145.775 22.8471C148.059 22.8471 149.276 22.025 149.925 21.2964C150.661 20.4646 151.022 19.2252 150.745 17.7495C150.31 15.4137 148.356 14.1435 146.794 13.0453C145.616 12.217 144.438 11.4002 144.139 10.459C143.914 9.74802 144.208 9.27609 144.389 9.02911C144.691 8.6207 145.38 8.30579 146.284 8.30579C147.076 8.30579 147.9 8.46633 148.801 8.89238C148.981 8.96913 149.367 9.1623 149.751 9.37841ZM0 30H51V0H0V30Z" fill="#9B9CB7"/>
<path fill-rule="evenodd" clip-rule="evenodd" d="M15.404 8.83945C25.1697 8.86238 38.8889 9.77183 45.3899 12.4119C45.9959 12.658 46.4757 12.8794 46.4757 13.3187C46.4757 13.9238 45.142 14.3499 43.9133 14.7371C39.1023 16.2482 30.4975 17.9929 17.9012 18.8962L6.22053 7.22169C5.29283 7.23933 4.36557 7.27521 3.43929 7.32931L15.509 19.4008L12.2364 24.1782C31.7413 21.0908 40.5622 18.0053 44.4822 16.2067C45.3211 15.8203 47.7266 14.7495 47.7266 13.3187C47.7266 12.4543 46.915 11.933 45.8574 11.4769C41.8368 9.74801 35.08 8.60923 28.3999 8.03322C21.4799 7.34342 12.2611 7.16083 7.1723 7.20934L18.0432 18.0856C20.1849 17.9285 22.2094 17.7495 24.12 17.5501L15.404 8.83945Z" fill="white"/>
</svg>
