<svg width="141" height="30" viewBox="0 0 141 30" fill="none" xmlns="http://www.w3.org/2000/svg">
<g clip-path="url(#clip0)">
<path d="M140.449 13.5721V11.1021H137.382V7.26217L137.279 7.29397L134.398 8.17546L134.341 8.19271V11.1023H129.794V9.48139C129.794 8.72666 129.962 8.1491 130.295 7.76392C130.625 7.38336 131.098 7.18989 131.7 7.18989C132.133 7.18989 132.582 7.29193 133.033 7.49314L133.146 7.54368V4.94242L133.093 4.92286C132.672 4.7715 132.1 4.69528 131.39 4.69528C130.495 4.69528 129.682 4.88998 128.973 5.27583C128.264 5.66223 127.706 6.21384 127.315 6.91517C126.925 7.61569 126.728 8.42477 126.728 9.32012V11.1021H124.592V13.5721H126.728V23.9779H129.794V13.5721H134.341V20.1848C134.341 22.9082 135.626 24.2883 138.159 24.2883C138.575 24.2883 139.013 24.2395 139.461 24.144C139.916 24.0459 140.226 23.948 140.409 23.8434L140.449 23.8195V21.3266L140.325 21.4091C140.158 21.5199 139.951 21.6106 139.708 21.678C139.464 21.7466 139.26 21.7809 139.102 21.7809C138.509 21.7809 138.07 21.621 137.798 21.3054C137.522 20.9869 137.382 20.43 137.382 19.651V13.5721H140.449ZM117.745 21.7813C116.632 21.7813 115.755 21.4123 115.136 20.6855C114.514 19.9549 114.199 18.9134 114.199 17.5901C114.199 16.2248 114.514 15.1562 115.137 14.4127C115.755 13.6742 116.624 13.2993 117.72 13.2993C118.783 13.2993 119.629 13.6573 120.236 14.364C120.845 15.0743 121.154 16.1343 121.154 17.5155C121.154 18.9137 120.863 19.9877 120.29 20.7061C119.72 21.4191 118.864 21.7813 117.745 21.7813ZM117.881 10.7919C115.758 10.7919 114.072 11.4141 112.869 12.6411C111.668 13.8682 111.058 15.5664 111.058 17.6888C111.058 19.7048 111.653 21.3263 112.826 22.5077C113.999 23.6894 115.596 24.2881 117.571 24.2881C119.629 24.2881 121.282 23.6572 122.483 22.4133C123.685 21.1706 124.294 19.4885 124.294 17.4156C124.294 15.3681 123.723 13.7345 122.595 12.561C121.468 11.387 119.881 10.7919 117.881 10.7919ZM106.115 10.7919C104.671 10.7919 103.476 11.1614 102.564 11.8897C101.645 12.6224 101.18 13.5834 101.18 14.7463C101.18 15.3507 101.28 15.8877 101.478 16.3431C101.677 16.8 101.985 17.2023 102.394 17.5399C102.8 17.8748 103.427 18.2256 104.258 18.5826C104.956 18.8699 105.477 19.113 105.808 19.3045C106.131 19.4923 106.361 19.681 106.49 19.8648C106.616 20.0447 106.68 20.2909 106.68 20.5947C106.68 21.4598 106.032 21.8807 104.699 21.8807C104.205 21.8807 103.641 21.7774 103.023 21.5739C102.41 21.3734 101.831 21.0799 101.307 20.7035L101.179 20.6122V23.5642L101.226 23.5859C101.66 23.7862 102.207 23.955 102.852 24.0879C103.495 24.2209 104.08 24.2886 104.588 24.2886C106.155 24.2886 107.417 23.9174 108.338 23.1847C109.264 22.447 109.734 21.4633 109.734 20.2602C109.734 19.3923 109.481 18.648 108.983 18.0478C108.488 17.4524 107.629 16.9058 106.431 16.4227C105.476 16.0396 104.865 15.7215 104.612 15.4774C104.369 15.2415 104.246 14.908 104.246 14.4856C104.246 14.1111 104.398 13.8111 104.711 13.5682C105.026 13.324 105.465 13.1999 106.016 13.1999C106.527 13.1999 107.049 13.2806 107.569 13.4387C108.088 13.5969 108.545 13.8087 108.926 14.0678L109.051 14.1534V11.3532L109.003 11.3325C108.651 11.1819 108.188 11.0529 107.625 10.9483C107.065 10.8444 106.557 10.7919 106.115 10.7919ZM93.1866 21.7813C92.074 21.7813 91.1963 21.4123 90.5781 20.6855C89.9559 19.9549 89.6412 18.9137 89.6412 17.5901C89.6412 16.2248 89.9563 15.1562 90.5788 14.4127C91.197 13.6742 92.0658 13.2993 93.162 13.2993C94.2247 13.2993 95.071 13.6573 95.6774 14.364C96.2867 15.0743 96.5958 16.1343 96.5958 17.5155C96.5958 18.9137 96.3049 19.9877 95.7316 20.7061C95.1622 21.4191 94.3064 21.7813 93.1866 21.7813ZM93.3233 10.7919C91.1996 10.7919 89.5131 11.4141 88.3113 12.6411C87.1098 13.8682 86.5001 15.5664 86.5001 17.6888C86.5001 19.7056 87.0952 21.3263 88.2683 22.5077C89.4413 23.6894 91.0376 24.2881 93.0127 24.2881C95.0705 24.2881 96.7237 23.6572 97.9255 22.4133C99.127 21.1706 99.7361 19.4885 99.7361 17.4156C99.7361 15.3681 99.1646 13.7345 98.0371 12.561C96.909 11.387 95.3229 10.7919 93.3233 10.7919ZM81.846 13.3319V11.1021H78.8173V23.9776H81.846V17.3913C81.846 16.2714 82.0999 15.3513 82.601 14.6563C83.0957 13.9697 83.7549 13.6217 84.5597 13.6217C84.8325 13.6217 85.1388 13.6667 85.4704 13.7557C85.7987 13.8441 86.0364 13.9402 86.1767 14.0413L86.304 14.1335V11.0801L86.2549 11.059C85.9729 10.9392 85.5738 10.8788 85.0689 10.8788C84.3078 10.8788 83.6267 11.1233 83.0433 11.6048C82.5313 12.028 82.1612 12.6083 81.8782 13.3319H81.846ZM73.3934 10.7919C72.004 10.7919 70.7646 11.0899 69.7104 11.6772C68.6541 12.2659 67.8371 13.1064 67.2813 14.1751C66.7279 15.2412 66.447 16.4866 66.447 17.8754C66.447 19.0919 66.7194 20.2083 67.2578 21.1922C67.7965 22.1778 68.559 22.9488 69.5242 23.4836C70.488 24.0177 71.6019 24.2885 72.8353 24.2885C74.2747 24.2885 75.5036 24.0007 76.4888 23.4332L76.5286 23.4104V20.6356L76.4013 20.7285C75.955 21.0537 75.4563 21.3132 74.9196 21.5001C74.3843 21.6869 73.8963 21.7813 73.4683 21.7813C72.2799 21.7813 71.3259 21.4095 70.6334 20.6764C69.9394 19.9423 69.5875 18.9115 69.5875 17.6144C69.5875 16.3091 69.9544 15.2518 70.6776 14.4717C71.3987 13.6939 72.3545 13.2993 73.5183 13.2993C74.5138 13.2993 75.4838 13.6364 76.4016 14.3021L76.5286 14.3944V11.4707L76.4876 11.4476C76.1422 11.2543 75.6712 11.0946 75.0864 10.9736C74.5041 10.8528 73.9346 10.7919 73.3934 10.7919ZM64.361 11.1023H61.3324V23.9776H64.361V11.1023ZM62.8777 5.61726C62.3792 5.61726 61.9444 5.78695 61.5872 6.12322C61.2286 6.46044 61.0466 6.88501 61.0466 7.38608C61.0466 7.87927 61.2264 8.2961 61.5817 8.62435C61.9346 8.95165 62.3708 9.11754 62.8778 9.11754C63.3847 9.11754 63.8225 8.95165 64.1797 8.6249C64.5392 8.2961 64.7215 7.87941 64.7215 7.38608C64.7215 6.90254 64.5441 6.48231 64.1945 6.13681C63.8452 5.79198 63.402 5.61726 62.8777 5.61726ZM55.3209 10.1523V23.9776H58.4118V6.0114H54.1339L48.6963 19.3562L43.4194 6.0114H38.9673V23.9775H41.872V10.1509H41.9717L47.5439 23.9776H49.7359L55.2212 10.1523H55.3209Z" fill="#9B9CB7"/>
<path d="M14.2478 14.2555H-1.90735e-05V0.00769043H14.2478V14.2555Z" fill="#9B9CB7"/>
<path d="M29.9791 14.2555H15.7315V0.00769043H29.9791V14.2555Z" fill="#9B9CB7"/>
<path d="M14.2474 29.9923H-1.90735e-05V15.7446H14.2474V29.9923Z" fill="#9B9CB7"/>
<path d="M29.9791 29.9923H15.7315V15.7446H29.9791V29.9923Z" fill="#9B9CB7"/>
</g>
<defs>
<clipPath id="clip0">
<rect width="140.449" height="30" fill="white"/>
</clipPath>
</defs>
</svg>
