<svg width="91" height="30" viewBox="0 0 91 30" fill="none" xmlns="http://www.w3.org/2000/svg">
<g clip-path="url(#clip0)">
<path d="M90.3051 7.14233C89.0765 0.087314 67.8785 -2.11434 42.9564 2.22461C32.49 4.04777 23.0393 6.73684 15.6796 9.76209C16.8102 9.78684 17.6486 10.0461 18.1581 10.5542C18.5564 10.9529 18.7575 11.5002 18.7575 12.182V12.8818H16.3137V12.2639C16.3137 11.7491 16.005 11.43 15.4582 11.43C14.9987 11.43 14.7156 11.6375 14.6242 12.0461C14.5936 12.2076 14.597 12.3738 14.6341 12.534C14.8956 13.6028 18.5244 14.2667 18.9191 16.2392C18.9709 16.4931 19.0411 17.0363 18.9303 17.8135C18.704 19.4045 17.3061 20.0183 15.5266 20.0183C13.0428 20.0183 12.0337 18.8419 12.0337 17.2199L12.0355 16.4526H14.6553L14.6566 17.4085C14.6566 17.9458 15.0473 18.2424 15.5793 18.2424C16.0833 18.2424 16.3777 18.0394 16.4794 17.6245C16.5266 17.4337 16.5473 17.1524 16.4614 16.9373C15.9767 15.7212 12.5882 15.1533 12.171 13.187C12.0778 12.745 12.0702 12.3688 12.1476 11.8931C12.1873 11.6573 12.2604 11.4283 12.3645 11.2131C4.20103 15.0308 -0.574482 19.2316 0.0564915 22.8586C1.28649 29.9145 22.484 32.1139 47.4056 27.775C58.3608 25.8681 68.2098 23.0134 75.7054 19.8145C75.5969 19.8199 75.4916 19.8316 75.3791 19.8316C73.6734 19.8316 72.1504 19.1925 71.9925 17.449C71.9646 17.1317 71.9596 16.9989 71.9587 16.818L71.9596 12.8098C71.9596 12.637 71.9799 12.3337 71.9992 12.1771C72.2013 10.4921 73.5334 9.79719 75.38 9.79719C76.8089 9.79719 78.561 10.2072 78.7536 12.1784C78.7792 12.4259 78.7765 12.6901 78.7761 12.777V13.1555H76.308V12.5907C76.308 12.5785 76.3044 12.3674 76.2774 12.2356C76.2369 12.0344 76.0654 11.5681 75.3624 11.5681C74.668 11.5681 74.488 12.0353 74.443 12.236C74.4173 12.3463 74.4052 12.5047 74.4052 12.6802V17.0363C74.4029 17.1875 74.4106 17.3059 74.4259 17.3927C74.438 17.4611 74.5627 18.0615 75.371 18.0615C76.1734 18.0615 76.2977 17.4611 76.3089 17.3927C76.3301 17.2748 76.3328 17.1344 76.3319 17.0363V15.6866H75.3606V14.2329H78.795V16.8189C78.7941 16.9949 78.7914 17.1249 78.7617 17.449C78.7203 17.9062 78.5763 18.2933 78.3503 18.6241C86.2996 14.8495 90.928 10.7166 90.3051 7.14233ZM25.6829 19.6461L24.4327 11.1509H24.3877L23.1055 19.6461H20.4704L22.2427 10.0524H26.5421L28.3036 19.6461H25.6829ZM38.3573 19.6461L38.2993 11.3152H38.257L36.7065 19.6461H34.2335L32.6907 11.3152H32.6466L32.5904 19.6461H30.1398L30.3522 10.0524H34.2938L35.4414 17.1789H35.4977L36.6485 10.0524H40.5882L40.7998 19.6461H38.3573ZM49.8971 17.787C49.6334 19.6452 47.8129 19.9702 46.5262 19.9702C44.3898 19.9702 43.0685 19.057 43.0685 17.1988L43.0698 16.4409H45.6581L45.6599 17.3851C45.6599 17.8977 46.0213 18.2114 46.5793 18.2114C47.0771 18.2114 47.3687 18.0115 47.47 17.6011C47.5168 17.4098 47.5361 17.1308 47.4533 16.9202C46.9763 15.7271 43.6144 15.1425 43.2057 13.2068C43.1121 12.768 43.1054 12.3953 43.1823 11.9246C43.4668 10.1698 45.1509 9.80529 46.5064 9.80529C47.7189 9.80529 48.6014 10.0699 49.1307 10.5992C49.5254 10.9943 49.7252 11.5366 49.7252 12.2113V12.9035H47.3048V12.2927C47.3048 11.7698 46.9803 11.4673 46.4587 11.4673C45.9961 11.4673 45.7161 11.673 45.6243 12.0776C45.5945 12.2375 45.5985 12.4018 45.636 12.5601C45.8953 13.624 49.4921 14.2743 49.8859 16.2284C49.9367 16.4778 50.0065 17.0129 49.8971 17.787ZM58.8613 16.9152C58.8649 17.0952 58.8473 17.4548 58.8374 17.5471C58.6898 19.1277 57.5593 19.931 55.4859 19.931C53.4044 19.931 52.2729 19.1277 52.1262 17.5471C52.1096 17.3375 52.1016 17.1273 52.1024 16.917V10.0501H54.5786V17.1335C54.5759 17.2919 54.584 17.4089 54.5997 17.4904C54.6303 17.6479 54.7869 18.1592 55.4859 18.1592C56.1826 18.1592 56.3392 17.6475 56.372 17.4922C56.386 17.4085 56.3945 17.2856 56.3945 17.133V10.0501H58.8613V16.9152ZM69.5298 19.5485H66.0842L63.7713 11.9493H63.7326L63.8609 19.5485H61.4594V10.0524H65.0495L67.1872 17.3522H67.2372L67.1107 10.0524H69.5298V19.5485Z" fill="#9B9CB7"/>
</g>
<defs>
<clipPath id="clip0">
<rect width="90.3614" height="30" fill="white"/>
</clipPath>
</defs>
</svg>
