<svg width="133" height="30" viewBox="0 0 133 30" fill="none" xmlns="http://www.w3.org/2000/svg">
<path d="M25.155 25.1533C22.4963 27.8128 18.7597 29.3606 15 29.3606C11.2403 29.3606 7.50372 27.8128 4.84586 25.1533C2.188 22.4955 0.640269 18.7597 0.640269 15.0008C0.640269 11.2403 2.188 7.50455 4.84586 4.84669C7.50372 2.18883 11.2403 0.641096 15 0.641096C18.7597 0.641096 22.4963 2.18883 25.155 4.84669C27.8128 7.50455 29.3606 11.2403 29.3606 15.0008C29.3606 18.7589 27.8128 22.4955 25.155 25.1533ZM25.6066 4.39337C22.8296 1.61722 18.9268 0 15 0C11.0732 0 7.17035 1.61722 4.3942 4.39337C1.61722 7.16953 0 11.0732 0 15.0008C0 18.9268 1.61722 22.8296 4.3942 25.6058C7.17035 28.3828 11.0732 30 15 30C18.9276 30 22.8296 28.3844 25.6066 25.6058C28.3828 22.8296 30 18.9268 30 15.0008C30 11.0732 28.3828 7.16953 25.6066 4.39337Z" fill="#9B9CB7"/>
<path d="M14.1753 14.5235V15.4757L15 15.9521L15.8247 15.4757V14.5235L15 14.047L14.1753 14.5235ZM15.7172 12.242V10.2187C15.7161 10.0287 15.6407 9.84666 15.5071 9.71158C15.3747 9.57839 15.1878 9.50229 15 9.50229C14.8122 9.50229 14.6261 9.57922 14.4937 9.71158C14.3599 9.84651 14.2845 10.0286 14.2836 10.2187V12.242L15.0008 12.6557L15.7172 12.242ZM10.4999 16.7694C10.3362 16.8651 10.2163 17.0209 10.1657 17.2037C10.1174 17.3873 10.1436 17.5826 10.2385 17.747C10.3335 17.9114 10.4896 18.0316 10.6728 18.0814C10.8566 18.1293 11.0518 18.1038 11.2171 18.0103L12.9692 16.9986V16.1713L12.252 15.7577L10.4999 16.7694ZM19.4993 16.7694L17.7472 15.7577L17.03 16.1713V17.0002L18.7821 18.0119C18.9472 18.1059 19.1426 18.1315 19.3264 18.0831C19.5096 18.0331 19.6659 17.913 19.7615 17.7489C19.8554 17.5839 19.8806 17.3886 19.8315 17.2053C19.7824 17.022 19.663 16.8654 19.4993 16.7694Z" fill="#9B9CB7"/>
<path d="M25.3634 21.1306C25.3219 21.1499 25.2754 21.1559 25.2302 21.1479L22.0802 20.5581C22.0024 20.5435 21.9315 20.5036 21.8786 20.4447C21.8257 20.3858 21.7936 20.3111 21.7873 20.2322C21.7683 20.0055 21.6812 19.7898 21.5375 19.6134C21.3921 19.4387 21.1968 19.3125 20.9777 19.2518C20.7586 19.191 20.5262 19.1986 20.3116 19.2734C19.9279 19.4087 19.5194 19.4592 19.1143 19.4217C18.7092 19.3841 18.3171 19.2593 17.9647 19.0559L17.0316 18.519V24.6479H15.7172V17.7596L15 17.346L14.2828 17.7596V24.6479H12.9692V18.519L12.0352 19.0559C11.683 19.2596 11.2908 19.3845 10.8857 19.4221C10.4805 19.4596 10.0721 19.4089 9.6884 19.2734C9.52807 19.2167 9.35684 19.1976 9.18795 19.2177C9.01906 19.2377 8.85705 19.2963 8.71446 19.389C8.57186 19.4817 8.45251 19.606 8.36564 19.7522C8.27876 19.8984 8.22669 20.0626 8.21347 20.2322C8.20725 20.311 8.1753 20.3856 8.12254 20.4445C8.06978 20.5034 7.99913 20.5433 7.92146 20.5581L4.77057 21.1479C4.737 21.1538 4.70253 21.152 4.66979 21.1425C4.63705 21.133 4.6069 21.1162 4.58167 21.0933C4.55644 21.0704 4.53679 21.042 4.52422 21.0103C4.51166 20.9786 4.50651 20.9445 4.50917 20.9105C4.51347 20.8648 4.53166 20.8215 4.56128 20.7864L6.64671 18.3544C6.69784 18.294 6.76753 18.2522 6.8449 18.2356C6.92227 18.219 7.00297 18.2285 7.07438 18.2626C7.27871 18.3594 7.51198 18.3916 7.7345 18.3544C7.95703 18.3172 8.16714 18.2105 8.32845 18.0525C8.48976 17.8953 8.60061 17.686 8.64279 17.4643C8.71698 17.0642 8.87715 16.6849 9.11223 16.3527C9.34732 16.0205 9.65172 15.7433 10.0044 15.5402L10.9383 15.0025L5.62923 11.9376L6.28604 10.8002L12.252 14.2448L12.9692 13.8312V13.0031L7.00324 9.55855L7.65923 8.42113L12.9683 11.486V10.4065C12.9683 10.0019 13.0568 9.59661 13.2256 9.22767C13.396 8.85955 13.645 8.52866 13.9527 8.26478C14.1249 8.11613 14.2476 7.91845 14.3043 7.69819C14.3611 7.47792 14.3493 7.24557 14.2704 7.03222C14.1898 6.81973 14.0467 6.6366 13.8601 6.50694C13.7952 6.46163 13.7469 6.39642 13.7224 6.32119C13.6979 6.24597 13.6986 6.16481 13.7244 6.09002L14.789 3.06735C14.8045 3.02417 14.8329 2.98679 14.8703 2.9603C14.9078 2.9338 14.9525 2.91948 14.9983 2.91928C15.0442 2.91948 15.0889 2.9338 15.1263 2.9603C15.1638 2.98679 15.1922 3.02417 15.2076 3.06735L16.2731 6.09002C16.2988 6.16481 16.2995 6.24597 16.2751 6.32119C16.2506 6.39642 16.2023 6.46163 16.1374 6.50694C15.9504 6.63645 15.8076 6.82009 15.728 7.03318C15.6485 7.24627 15.636 7.4786 15.6924 7.69896C15.7486 7.91735 15.8735 8.11754 16.0448 8.26478C16.3535 8.52979 16.6013 8.85834 16.7714 9.22797C16.9414 9.5976 17.0296 9.99959 17.03 10.4065V11.4852L22.3391 8.4203L22.9959 9.55773L17.03 13.0023V13.8303L17.7472 14.2439L23.7131 10.7994L24.3699 11.9368L19.0616 15.0017L19.9956 15.5394C20.3477 15.7432 20.6517 16.0207 20.8868 16.3527C21.1219 16.6848 21.2826 17.0637 21.358 17.4635C21.3994 17.6852 21.511 17.8945 21.6715 18.0516C21.8328 18.2096 22.0438 18.3163 22.2655 18.3536C22.4888 18.3908 22.7221 18.3585 22.9256 18.2617C22.997 18.2278 23.0777 18.2184 23.155 18.235C23.2324 18.2516 23.3021 18.2933 23.3533 18.3536L25.4387 20.7856C25.4682 20.8206 25.4862 20.8638 25.4904 20.9093C25.4945 20.9549 25.4846 21.0007 25.4619 21.0404C25.4398 21.0804 25.4052 21.1121 25.3634 21.1306ZM24.0084 5.99075C21.65 3.63152 18.3353 2.25916 14.9992 2.25916C11.6638 2.25916 8.34913 3.63234 5.9899 5.99075C3.63066 8.34998 2.2583 11.6647 2.2583 15.0008C2.2583 18.3354 3.63066 21.6517 5.9899 24.0109C8.34913 26.3685 11.6638 27.7417 14.9992 27.7417C18.3345 27.7417 21.65 26.3685 24.0084 24.0109C26.3677 21.6517 27.7408 18.337 27.7408 15.0008C27.7408 11.6647 26.3677 8.34998 24.0084 5.99075ZM101.445 27.4993V2.49988H105.822V12.0824H110.615V2.49988H115.09V27.4993H110.615V16.5229H105.822V27.4993H101.445ZM37.4169 17.8299L32.5569 2.49988H36.9247L39.9167 12.2396L43.2239 2.49988H47.317L42.2793 17.332V27.4993H37.4169V17.8299ZM63.4189 27.4993H67.3391V8.65523L70.6835 25.0375H74.344L77.3104 8.39052V27.4993H81.9065V2.49988H74.7841L72.6854 14.392L70.2534 2.49988H63.4189V27.4993ZM122.807 17.5156L124.67 6.33487L126.478 17.5156H122.807ZM128.429 2.49988H121.659L117.09 27.4993H121.141L122.111 21.6815H127.151L128.094 27.4993H132.556L128.429 2.49988ZM89.6219 17.5156L91.4857 6.33487L93.294 17.5156H89.6219ZM95.2454 2.49988H88.4754L83.9067 27.4993H87.9576L88.9271 21.6815H93.9665L94.9079 27.4993H99.3716L95.2454 2.49988ZM51.5954 17.5156L53.4592 6.33487L55.2675 17.5156H51.5954ZM57.2189 2.49988H50.4489L45.8793 27.4993H49.9319L50.9014 21.6815H55.9408L56.8822 27.4993H61.345L57.2189 2.49988Z" fill="#9B9CB7"/>
</svg>
